<svg xmlns="http://www.w3.org/2000/svg" viewBox="0 0 701.76 621.82"><title>Untitled-2</title><g style="isolation:isolate"><g id="aeffc9ce-6b80-4bb4-96be-8112cda403d5" data-name="Layer 1"><path d="M558.54,672.88c-.43-5.49,3.07-4.56,4.86-1.82l64.37-144.23c-1.38-1-2.42-2.67-2.34-6.6,2.57.53,3.24,4,3-4,1.94-.55,2.92.26,3.36,1.67l54.13-121.3c-.92-.86-1.52-2.93-1.39-7.2,1.48.12,3.21-.28,4.58,0L699,367.27l15.27,76.91L729.38,368c-.94.3-1.31,4.26-3.57,3.54v-5.91c1.11.5,2.91-.46,4.05-.08L747.45,277l-4.54-22.87-61.68-6.93L520.64,607.06a2.65,2.65,0,0,1,3.43-1.62v8c-2.71,1.39-2-4-4-4a8.12,8.12,0,0,1,.39-2l-20.43,45.78-52.8-118.31c-.62,1.39-2.65,2.31-3.88,1.24,0-2,.79-2.39,1-4l.43-2.76-1.24-2.78-7.74,17.33c2.69-1,1.77,5.3,3.61,6.07-.27,4.64-4.35,1.13-4.94,0a16.17,16.17,0,0,0,1-5.25l-4.74,10.6a2,2,0,0,0,.8.62c-.43,2.09-1,1.78-1.58,1.14l-22.05,49.4,62.43,139.88H529.8L561.66,675A4.24,4.24,0,0,1,558.54,672.88ZM713,411.18c1.44-7.5-4.42-.4-3-7.9,3,.67,5.07,3.05,5.93,7.9Zm6.91-91.2c-.19,8.63-1.71,3.65-4.94,4C715.13,319.65,717.5,319.72,719.94,320ZM715,389.41c.13,1.19-1.38,2.46-2,2C709.59,388.34,714.87,387.61,715,389.41Zm-12.79-85.23c4.88-1.85,6.66,2.4,8.83,5.91-2.37,3.12-2.76,10.23-4.87,13.87l.46,3-1.45,1c.13,2.33,1.51,2.14,3,2-.72,6.71-3.29,1.93-3.95-2l-1.52-1,1.52-1a5.76,5.76,0,0,0-2-4C706.89,316.93,700.76,314.21,702.21,304.18ZM687.45,353.7c1.32.74,1.51,3.51,3,4-.26,3.46-1.71,4.51-3.95,4C686.07,357.48,687.12,356.42,687.45,353.7Zm-8.83-79.25c1.71-4.78,2.18,4.25.92,7.9C675.06,281,681.06,275.78,678.62,274.45Zm-3,37.63c1.59-.53,1.65,1.86,3,2v4c-1.65.53-1.71-1.93-3-2Zm-3.95,71.35c-.53,4.72-3.83,8.23-5.93,4A6.4,6.4,0,0,1,671.7,383.43Zm-7.39,35.72.47-2v-4h4.94c.2,1.52.06,3.91,1,4-.14,3.66-3.31,1.21-4,4l.53,2.92-1.51,1c.26,1.6.85,2.33,2,2-.06,2.59-1.24,2.79-1,6-3,1.39-3.55-2.06-5.86-2v-7.9a3.77,3.77,0,0,0,3.89-2Zm-1.44-81.32c-.79,7.37-4.09,1.67-5.94,0C657.66,330.73,661.55,335.05,662.87,337.83ZM650,433c-.14,4.45-2.44-2.59-4.88,0C645.93,426,648.57,430.69,650,433Zm-6.86-55.48c-.2,1.59-1,1.93-1,3.92C639.86,380.38,641.58,372.09,643.16,377.53Zm-10.81,73.34c-.2,1.66.4,1.86,1,2-.2,2.26-1.85,1.66-3,1.92C630,451.47,631.16,451.07,632.35,450.87Zm-26.63,41.61c3.11,1.39,1.32,5.25,1,9.89l1.52-1,.46,3h4q-1.29,4.38-4.95,4v-4l-1.45,1-.53-3a17.85,17.85,0,0,0-1.9-5.91C603.82,493.81,605.53,494.61,605.72,492.48Zm-5.86,31.73c1.91,1.32,2.63,5.24,3,9.89h-4C598.54,529.52,599,526.46,599.86,524.21Zm-4-37.7c-.6,2.06-2.25,2.06-2,6-2.58-1.39-2-9-4.88-9.89C590.89,471.84,594.33,480.8,595.91,486.51ZM584.11,546c1.25,11.15,2.7,20.64,2,27.74-3.37-2.45-2-14.54-7.91-11.88C581.41,559.11,580,546.84,584.11,546ZM573.3,530.12c4.15-1.8.07,13.13,3.88,11.94C574.29,549.09,572.24,537.61,573.3,530.12Zm-7.91,33.71c-4.61-3.11-1.32-9.82,0,0Zm3,9.89c1.12,2.39,1.12,7,1,11.95-2.24-2.19-4.28-4.65-6.91-6C563,574.91,566.18,575.25,568.36,573.72Zm-154.5,31.72c3-7.29,3.31,6,0,0Zm13.78,39.63h-2c.19-1.66-.4-1.86-1-1.92C424.28,639.3,429.16,640.22,427.64,645.07Zm18.65-37.63c5.54.73-3.15-.4,0,0Zm12.86,99.09c-.2-4.32.8-6.31,2.9-5.91C462.25,704.94,461.26,706.93,459.15,706.53Zm41.32-43.61c1.38,1.73,3.76,1.6,3,8C500.8,671.48,500.14,668.17,500.47,662.92Zm2,31.73c1,1.52.79,17.45-3,15.86C499.42,703.21,501,699,502.45,694.65Zm-13.77-63.39c-.27,2.13-2,1.33-2,3.92-1.19-.33-.86-3.58-1-5.91C487.29,628.67,487.36,631.13,488.68,631.26Zm-4,115c-.47-6.17,2.43-7.1,4-4C488.41,745.69,487,746.75,484.72,746.22Zm6.86-21.84c-2-.52-.21-8.76-2.9-7.89l-.53,2.91-1.45-.92c.26,5.17-1.39,6.5-4,5.9-2.37-7.89.86-8.1,1-15.86,1,0,1.19,1.59,2,2v-2h1c3.75.33,1.45-11.55,6.85-7.9,1.06,5.91,0,15.87,3,17.86C497,724.72,492,719.94,491.58,724.38Zm7.9,11.88c.79.4,1,2,2,2,1-1.27,1-4.51,2.9-4C508.71,741.44,498.63,747.15,499.48,736.26Zm12.78-47.52h4C517,696.37,511.48,696.37,512.26,688.74Zm5,15.8c1.39-5.84,3.49-11.28,6.86-7.9C523.74,703,520.38,710.05,517.21,704.54Zm5.87-41.62c.66-6.16,2.64-2.58,4.95-1.92C527.1,664.39,524.53,666.11,523.08,662.92Zm18.71,13.88v4c-4-2.32-1-8.43,3-6C544.56,677.19,542.92,676.53,541.79,676.8Zm3-29.74h-3c-.25-3.18.93-3.38,1-5.91.8.34,1,2,2,2Z" transform="translate(-149.19 -189)" style="fill:#c1272d;mix-blend-mode:color-burn"/><path d="M257.34,565.82l1.52,1-.53,3c2.57,4.25-.79,11-3,5.91.27-2.78,1.66-3.32,2-5.91l-1.45-1,.47-3c-1.26-.13-1.32-2.52-3-2-1.59-7.44,4.61-9,2-11.88-3.06-.38,1.62-.26,2.22,1,.32-2.54,0-8.71.75-3-.73-5.24-1.19-9.82,3-4-1.78,4.13,1.28,3,3,6.75l19.49-98.1c-1.92-2.59-3.22-6.45-3.79-11.73l-.53-3a5.09,5.09,0,0,0-2.44-4.91c-.53-6.18,4.28-.74,3,2l1.45-1,.52,2.92c1.12.33,2.76-.33,2.9,2l.53-1,.46-1a4.73,4.73,0,0,1,1,.36l14.3-72,17.49,39.2c.55-1.14,1.69-1,1.69-3.19,2.34.75.69,4.82-1.11,4.48l20.58,46.12c1.49-2.14,1.63-7.23,5.12-11,2.57,8.3-2.64,6.11-2,15.86h-1l6.48,14.52,35.66-79.91-49-109.84v2.8h-4v-4h3.44L324,258.62c-1,2.39-2.29,4.22-4.64,3.89,1.05-2.36,1.8-5.4,3-7.5l-3.49-7.81-11.51,1.29c-.34.9-.91,1-1.25.15l-33.7,3.78c.36,2.45.49,5.33.65,8.16l1.85-1s1.12,2.93,3.09,2.93v4c-.59.14-1.18.34-2-4l-1.78,1-1.19-2.92c-1-.06-1.19,1.59-2,1.93l.53,3.65-1.51,2.31c-.27,5.25,3.82,1.6,3,8-.73-.47-1.9-.08-2-2-1.51.13-.72,5.05-3,3.92,2.83-3.05-2-9.23,1-11.89l-.46-3,1.45-1a53.25,53.25,0,0,1,.43-9.87l-13,1.46c1.38,5.72,0,12.26-1.21,18.36-.8-.66-1.6-1.31-2.38-2l-5.61,28.26a8.37,8.37,0,0,1,.14,3.48l1.45-1-.46,3c2.24-.66,1.05,5.72,3,5.91-1.4,2.73-4.88,4.32-5.94,2,.07-2.51,1.25-2.71,1-5.9l-.36-1.36L199.83,543.15a23.7,23.7,0,0,0,2.41-1.09c-.53,2.6-1.91,4.88-3.21,5.13l-20.68,104.1a1.27,1.27,0,0,1,1.28-.25v4h-2l-.53,3L177,658l-3.9,19.61a13.27,13.27,0,0,0,.57-2.75c1.79,1.45.13,3.65,0,6a2.31,2.31,0,0,1-.72-2.43l-23.79,119.8,63.88,12.67,15.31-77.09c-.8.6-1.7.39-2.54-1.38.15-3.58,1.73-4.18,3.63-4.1L262.76,560.6C260.8,562,258.29,562.34,257.34,565.82ZM349.87,397.3c-.85-.33-.92.8-1,2-1.9.79-1.45-9,1-5.91Zm22.61-27.74c-.2,3.52-1.65,4.51-3.88,4C369.25,370.89,370.7,369.83,372.48,369.56Zm-5.86,25.82c-3.43,3.72-3.76-2.32-6.93-4C360.09,381.78,368,384.89,366.62,395.38Zm-7.92,15.8c-2.37,6.17,2.11,13.86-2.9,13.86-.19-2.25.21-3.51.93-3.91-.6-2.65-2.05-3.72-3.89-4-.46-4.1.66-5.23,1-8C356.2,408.38,355.94,412.84,358.7,411.18Zm-1-35.64c.72,3.18-4.61,3.18-3.89,0l-1.53,1-1.44,1c-1.25-.87-2-2.59-2-6h1l1.13-3,1.84,1c1.12-.33,1.05-3.12,1-5.91C359,364.05,353.57,373.81,357.72,375.54Zm-2.91-31.73c-2.1.86-2.63-1.4-3.95-2C350.54,338.31,356.4,338.31,354.81,343.81ZM343,359.67,342.5,356l1.44-2.32c0-1.2-.13-2.32-1-2v-3.92l-.45-3,1.44,1c.59-4.11,1.59-4.18,3-2v-2h1c.2-1.53.87-2.32,2-2v4h-2l.54,3-1.52-1,1.52,5.58a48.34,48.34,0,0,0,1.44,14.27c-1.31-1.33-1.84-4.25-2-8l-2.3.53-.66-4.51h-1l.53,3.64s-1.52,2.33-.53,4.32c-.13,4.91-3.29.53-3.89,0C340.19,356.69,343,359.67,343,359.67ZM339.07,322c-.93-1.2-1.78-2.39-2,0-2.9-1.66.59-6.37,0-9.9C340.51,310.69,340.58,319.06,339.07,322Zm-2-23.77c-.2,1.66.39,1.86,1,2-.21,2.33-1.78,1.66-3,2C334.72,298.81,335.9,298.41,337.09,298.21Zm-4.95,124.92c3.37-.67,5.67,10.94,1,9.88C333.53,428.23,331.35,428.69,332.14,423.13Zm-52.12-10h-2v-4h2Zm39.34-67.37c-3.56,1.26-5.21-1.32-6.92-4C311.91,341.16,320.15,339.36,319.36,345.8ZM314.41,326c-1.71-1.79-1.58-7.3-3.88-7.89C311.12,309.57,317.84,320.45,314.41,326Zm-1-67.36c.33,3.18-.92,3.38-1,5.9-.79-.33-.92-2-1.91-2C310.92,260.11,311.78,258.45,313.43,258.59Zm0,17.86c1.18,2.52.45,12.54-2.9,11.88C308.68,284.41,309,273.72,313.43,276.45Zm-4.88-8c-.86,2.93-1.52,6.32-3.95,6C304.27,269.21,306.63,269.34,308.55,268.47Zm-9.89,83.24c1-6,3.36.93,4,2C302.36,358.41,300,351.44,298.66,351.71Zm1-79.25c-1.06,1.86-.27,7.3-2.91,5.91C296.55,274.05,297.54,272.06,299.66,272.46Zm1,41.62V320c-2,.87-2.57-1.33-3.89-1.92C297.35,315.4,298.86,314.34,300.64,314.08ZM285.88,256.6c1.58-.6,1.71,1.85,3,2v3.92h-3Zm5.93,23.76c-2.25,5.9-6.53-3.78-6.92,4-1.31-.6-.79-5-1-7.89C286.34,271.93,291.48,271,291.81,280.36ZM277.05,320c1.91.87,4.21.74,3.95,6h-3.95Zm0,69.43c1.25-2.73,4.28-2,6.86-2l.52-3,1.45,1c0-2,.79-2.33,1-4-1.52-.14-3.43.26-3-3.92l-1.45-1,.46-3c-.93,0-1.13-1.6-1.92-2-.33-3.53,5.47-3.53,3.89,2l1.52-1,.46,3c2.69-5.52,4.15,1.79,6.92,2-5.28,1.39-4.48,8.56-6.92,11.88l.52,3-1.51-1-.46,2.92-.53,3c1,0,1.19,1.67,2,2-1.06,1.85-.27,7.29-3,6-.27-2.73-1.39-3.78-1-8l-1.45,1-.47-2.92h-3.95Zm-1-21.84v6c-1.58.52-1.72-1.86-3-2v-4Zm-2-25.75c-1.32-1.33-1.85-4.25-2-7.9C275.07,331.93,273.88,338.31,274.08,341.82Zm0,65.44c.59,6.44-.66,9.22-1,13.87C271.71,420.6,270.78,404.81,274.08,407.26Zm-18.72-39.69v-5.91c2.57,1.07,1.13,6,4.95,7.9C263.41,372.42,256.28,369.17,255.36,367.57ZM268.15,431c0,1.19-.14,2.32-.93,2,0,2,.79,2.32.93,4l1.52,1-1.52.93c2.17,4.58-.27,11.09-3.89,9.95-1.13-6.24,1.51-4.85,2-8l-.53-2.92,1.51-1c-.19-2.32-1.57-2.18-3-2C264.92,432.35,266.37,431.28,268.15,431Zm-9.82-79.32.53-2.92.46,2.92c3.55.79-.73-8,4.94-5.91v7.9h-4.94l-.46,3-.53-3c-2,4-1.92-.87-3.95-2C255,345.8,256.49,353.63,258.33,351.71Zm-1-49.52c-1.71.27-2-2.45-3.95-2C253.12,296.68,258.92,296.68,257.34,302.19ZM180.63,720.47c.12,4.31-.87,6.24-3,5.91C177.46,722.06,178.45,720.07,180.63,720.47Zm3.88,39.62c-2.77-1.19-5-7.37-5.86,2-4.75-3.66.79-6.71,1-11.88C183.2,749.6,186.29,755.91,184.51,760.09Zm11.8-118.94c3-.13,5,5.85,3,9.89C197.56,649.25,195.85,647.4,196.31,641.15Zm1,77.33c.46-4.45,1.78-7.1,3.95-8C202.83,717.35,200.72,721.66,197.3,718.48Zm51.21-259.72c1,6.64-1.39,6.51-3.95,6C244.29,459.5,246.6,459.63,248.51,458.76ZM237.7,435c1.58-.61,1.65,1.85,2.9,2v3.92h-2.9Zm0,15.86c3-7.37,3.3,6,0,0ZM229.79,437c2.18,2.86,4.62,5.25,4,13.88C230.91,449.34,228.94,446,229.79,437Zm.53,80.91.46-3.65c-2.58.6-2.5-4.11-3-7.9,2.77.46,2.77,6.31,4.95,7.9l.46,3-.46,3c2.63,3-1.59,8.55-2,11.87-1.84-.2-.66-6.5-3-5.9.27-4.12,3.69-1.93,3.95-6Zm-.53-57.14c-3.95-.53-4.61-7.84-6.85-11.89C226.63,450,228.87,454,229.79,460.76ZM207.18,563.83c-.19,1.59-1,2-1,4h-2C203.76,563.56,205.6,564,207.18,563.83Zm3.89,218c-3.62-6,3-6.63,0,0Zm0-174.42-.46,3-1.45-1c-.33,4.57-2.64,4.57-4,2,.27-2.79,2.18-2.26,3-4l-.52-3,1.51-1c.86-2.85,1.45-6.23,3.89-5.9C215.42,602.13,211.54,602.85,211.07,607.44Zm2-115c-1.71.6-1.71-11.08,1-8C214.5,488.7,213.38,489.76,213.05,492.48ZM221,645.07l-.53,3-.46-3c-2.84,7-4-.07,0-1.92l-.52-3,1.51,1c0-2,.8-2.38,1-4C223.66,636.57,223.66,648.26,221,645.07Zm1-71.35c-.27-1.53-.07-3.92-1-3.92,0-2,.8-2.38,1-4l.46-3,.53-3h-1c-.19-9.68,8.5-3.26,3,0l.47,3.65-1.45,2.32c.72,4.38,6-.4,4.88,7.9Zm3.89,89.2c1-4.58,1.31-10.55,4.94-9.89C231.11,660.34,228.34,661.33,225.84,662.92Zm3-25.75c-.61-7.63,6.52-2.85,5.92,2C232.29,639.43,230,639.5,228.81,637.17Zm6.91-81.24c.2-2.19,1.91-1.39,2-4,1.05.47.65,3.92,1.91,4C239.47,560.85,236.32,556.47,235.72,555.93Zm1,45.61c-.72-5.45,1.91-4.06,1.91-8C241.06,594.83,239.15,603.59,236.71,601.54Zm1.91-33.72c0-.14-.92.12-.92,0C236.84,558.26,244,577.24,238.62,567.82Zm0-186.37c-.19-5.78,2.24-6,2-11.89,2.51-4-1.45,9.36,2,9.9C242.31,382.17,240.14,381.11,238.62,381.45Zm5.94,158.62c.13-5.7,1.25-9.42,4.94-8C248.24,535.49,247.46,539.94,244.56,540.07Zm5.93-33.72-.53,3-1.45-1c.19,4.32-.79,6.31-3,5.91-.06-3.39.79-5,2-5.91l-.53-3,1.52-1C247.38,495.14,253.26,506.68,250.49,506.35Z" transform="translate(-149.19 -189)" style="fill:#c1272d;mix-blend-mode:color-burn"/><path d="M160.48,258.55c.15,0,.28,0,.43,0a8.81,8.81,0,0,1-.23,1L165,281.24c.65.29,1.18.29,2.78-.88.2,2.33-.13,5.64,1,6,1.71-.8-.19-2.59,0-6,1.59.2,3.43-.27,3,4l1.51-1,.46,3h2v3.92c-1,0-1.18,1.66-2,2l-.46,3-1.51-1v4c-1.07.48-1.67,1.94-3,2.08l28.58,143.89L230.55,277,214,193.41c-.29,5.88-1.16,10.51-4.79,9.63-2.27-5.48-.33-14.07,4.3-12.08l-.39-2-34.9,6.93.48,1.2c3-1.46,3.55,2,5.86,2-.13,4.31-2.44,4.25-4.88,3.92l.46,3-1.44,1c-.2,2.32-1.59,2.18-3,2,.07-2.38.26-4.7,2-4l-.53-3.58,1.52-2.33v-2l-1.86,1-.66-1.79-14.51,2.88a7.54,7.54,0,0,1,.28,3.83l1.78-.94s1.19,2.93,4.09.94c-.39,2.52-1.26,4.11-2.9,2L163,206l-1.13-3h-3l.47,3.64L158,209c-.52,4.13-1.51,4.19-3,2,.21-1.52.87-2.32,2-2l-.46-3.64L158,203a3.56,3.56,0,0,1-.43-3l-8.33,1.66ZM220,230.84c.92,7.11-3.89,2.72-5.94,3.92C214.16,229.72,217.34,230.84,220,230.84Zm-8.22,42.63c.51,1.61.92,3,1.27,4.12a3.56,3.56,0,0,0,1,.78c-.18.53-.29.89-.42,1.29l.28,1c.09-.17.14-.29.14-.29l1-1,1,1c.66,3.91,5.87-1.2,5,6-2.44.27-4.81.33-5-4l-1.44,1s-.13-.72-.68-2.7c-.42.82-1.51,2.82-.28-1-.16-.6-.36-1.29-.59-2.07-1.07-1.08-1.23-2.58-1.27-4.12-.46-1.47-1-3.08-1.6-5C211.78,269.51,211.7,271.5,211.75,273.47Zm-28.23,62.44c-.32-2.78-1.7-.2-2,1.92-1.31-1.25-1.78-4.18-1.91-7.9h4.88C186.16,336.11,180.89,339.5,183.52,335.91Zm4-53.56v2h-1c3.1,6.11-3.76,4.18-3-2h1l-.46-3,1.45,1v-3.91h3A15.65,15.65,0,0,1,187.48,282.35Zm5.92,13.87c-1.57.6-1.7-1.86-3-2,.53-4.11,1.52-4.17,3-2Zm6.87,117c-2.25-2.79.06-12.87,3-11.88C202.7,406.13,199.41,405.54,200.27,413.17Zm5.92-178.41h3v6c-1.65.53-1.71-1.86-3-2Zm1,97.17c-1.58,9.36-4.87,2.66,0,0Zm-9.88-43.6c2.9,4.11,6.12,7.49,6.92,15.85-2.11,4.39-2.9-2.59-5.93-2C199.08,295.29,196.83,294.56,197.3,288.33Zm-1.92-55.55c-.46,3.11-3.16,1.72-2,8-1.63-2-1.11-8.43-2-11.88C194.07,227.4,193.4,232.78,195.38,232.78Zm-4.94-35.65c1.12.33,1.72-.47,2-2,4.09,1.06,1.26,17.85-2,9.89.2-2.26,1-1.07,1,0C194.33,203.3,189.13,202.1,190.44,197.13Zm-8.9,57.48c3,.07,6.52,1.12,5.94-6,3.55,3.65-1.71,5.51-1,10h-5c-1,.53-.06,16.2-1.91,5.9l-1.84,1-1.12-3c-1.58,1.46-1.58-9.3,0-7.9l-.53-2,.53-2c.39-2.45,1.25-4,3-3.91a16.8,16.8,0,0,1-1,5.91l1.44,1Zm-1.91-11.88c-2.43-1.13-5.07-1.73-4.94-8C176.08,237.88,179.84,236.35,179.63,242.73Zm-7.9-23.84c2.7.87.06,6.25-2,4C170,220.76,171.73,221.55,171.73,218.89Zm-8.84,10c3.82-1.34,1.52,11.67-1,9.88C162.43,235.89,160.72,228.52,162.89,228.86Z" transform="translate(-149.19 -189)" style="fill:#c1272d;mix-blend-mode:color-burn"/><path d="M703.2,611.27a11.45,11.45,0,0,1,0,4.06l-.66-.74-3.56,18-47.31-106L629.33,576.6a24.76,24.76,0,0,1,2,9.07c-2.17.17-4.18.15-5.44-1.41L616,606.47h0l.06,0s.53,3,4.42,1v7.89a4.87,4.87,0,0,1-.54,0l61.28,137.31,61.68-6.93,83.52-420.57c-.7-1-.32-1.64.38-1.92L851,201.68,787.06,189ZM634.33,569.8c1.65-6.5,9.23-5.11,9.82,2C641.71,577.1,636.44,571.53,634.33,569.8ZM652,595.55v4c-.79-.4-.92.73-1,2C649.09,602.26,649.61,592.5,652,595.55Zm-1,31.73v-4c.86.4,1-.8,1-2,2.31,1.33,2.64,6.57,4.94,8C655.22,635.64,654.36,624.09,651,627.28Zm20.7-47.58c-3.37-5.12,5.07-4.79,0,0Zm2,122.91h-2v-4h2Zm2-11.87c-1.77-.54-2.24-3.46-2-8C676.64,680.78,675.38,687.15,675.65,690.74Zm-3-41.69a3.77,3.77,0,0,0,4,2C675.65,655.16,672.29,656.49,672.68,649.05Zm4-47.51c-.26-3.27.93-3.46,1-6,2.84.14,5.54.74,4.88,7.9C679.54,604.92,679,601.46,676.64,601.54Zm5.87,122.84c1.25.87,2,2.52,2,6C683.3,729.5,682.44,727.84,682.51,724.38Zm-1-45.59c3.63-1.27,1.25,9.42,4,10C684.35,692.79,681.58,683.56,681.52,678.79Zm7.9,0c.14-3.52-1.18-4.19-1-7.9h3.95C691.94,674.67,692,679.38,689.42,678.79ZM705.18,651c-1.45-2.32-4.42-1.72-3.95-7.89C704.32,642.22,705.64,644.87,705.18,651Zm17.73-63.45c-1.32-.66-1.58-3.45-3-3.91C720.34,578.7,723.76,583.54,722.91,587.59Zm5.86,116.95c-1.57.6-1.71-1.86-3-1.93v-4c1.58-.6,1.71,1.86,3,2Zm-1-43.54c-1.79-3.58-7.12-14.47,0-13.94C728.84,653.57,730.82,655.82,727.79,661Zm5.93-57.55c.72-7.3,5.27-2.38,4.87,4C735.5,609.16,735.56,604.31,733.72,603.45ZM836.07,248.63c-.46,5.05-6.92-2-4.94,8-1.45-1.66-2.11-5-2-9.89C831.79,246.71,834.81,245.91,836.07,248.63Zm-70.85,83.3c3.36,1.46,2.77,11.08,2,15.86-4.09-.53-3.89,2.59-6.92,0C761.2,341.09,763.64,337.37,765.22,331.93Zm-3,69.36c.46,6.17-2.51,7.09-4,4C758.56,401.75,760,400.76,762.26,401.29Zm-12.79-9.89c1.71.47,2.23,3.39,2,7.9-1.52-1-2.51-2.92-4-3.92C747.75,393.19,749.47,394,749.47,391.4Zm-2,186.3c1.45-5.37,4.21,3.19,5.87,4C751.32,588.19,749.27,578.3,747.49,577.7ZM755.34,431c-2.31-4.72.19-9.76,3.95-7.9C757.84,425.45,758.1,431.36,755.34,431Zm11.86,53.49V480.6c2-.93,1.84,2.79,1.91,5.91C768.32,486.18,768.12,484.52,767.2,484.52Zm1.91,99.16c-.33-3.39.79-3.78,2-4-.21,1.65.39,1.85,1,2C772,584,770.3,583.35,769.11,583.68Zm3-113c-2.18-8.77-10.15-5.92-13.78-11.89,1-3.25,4.22-2.12,5.94-4-.8-5-4.09-5-5.94-7.9,1.85-4.91,3-11.22,5.94-13.87,9.08,3.32,10.34,17.05,11.79,31.72C772.4,464.2,771.68,460.82,772.08,470.65Zm2-67.37c-2.5,3.25,0,13,2,13.86-4.15,11.36-3-9.15-7.91-8,.46-11.34,4.48-3.18,6.92-9.88,3-1.46,1.91,5.44,4.94,4C779.85,409.25,775.57,405.6,774.05,403.28Zm11.8-15.86h-3C781.43,381.64,787.3,381.64,785.85,387.42Zm11.8-6c.59-5.71,1.58,3.05,3,2C799.69,390,798.7,381.24,797.65,381.45Zm3,59.46c-1.86-.73.65-2.52,2-2C804.5,439.72,802,441.44,800.62,440.91Zm-2-47.52c5,2.45,5.73,13.61,8.89,19.78C801.27,413.17,799.56,404.07,798.64,393.39Zm21.68-122.92h-2v-6h2Zm-1-13.87c-2.31.6-1.12-5.78-3-6C817.55,244.65,820.65,251,819.33,256.6Zm-5.93-25.76c.79.34,1,1.94,2,1.94v4h-3C812.15,233.56,813.4,233.37,813.4,230.84Zm-5.87,101.09V322c3,1.46,2.9-3.39,5.87-2l-.46-2.92,1.45-1v-4l-1.78,1s-1.12-3-2.11-1h-2c-.13-3.51,1-4.64,3-2l1.45-1,1.45,1c3.82-1.79,6.32,3.25,4,8l.53,3-1.52.94c.08,2.58,1.25,2.79,1,6-1.19.34-2.77-.33-3,2l1.52,2.33-.53,3.65c.78.4,1.18,1.59,1,3.92h-2v-3.92l-.47-3,.47-3c-1.45-1.72.26-3-1-7.95H810.5c-.86,5.63,1.38,5.17,1,9.95h-4l.46,3.58-1.45,2.32v4h-2l-1.13,3-1.83-1c-1.26,5.51-3.9-2.45-4.88-4,.85-3.39,3.56-5.44,3.89,0l1.51-1,1.45-1h3l-.52-3.58Zm-9.88-31.73c1.25.86,2,2.52,2,6C798.43,305.25,797.65,303.59,797.65,300.2ZM804.57,205c-.72,3.58-1.78.33-3,0C802.33,201.51,803.38,204.76,804.57,205Zm-3,37.7h2c-.07,2.78-.14,5.57,1,5.9-.27,4.72-2.64-2.25-4-1.92C800.81,245.05,801.61,244.72,801.61,242.73Zm1,17.85c.26,10.29-6.14,4.71-7.84,1.93C795.4,255.33,798.64,263,802.59,260.58Zm-13.77,75.33c1,5.91-2.18,3.45-4,3.92C785.12,336.38,786.57,335.31,788.82,335.91Z" transform="translate(-149.19 -189)" style="fill:#c1272d;mix-blend-mode:color-burn"/><path d="M795.74,805.68a5.77,5.77,0,0,0,.41,3.34L851,798.15l-15.59-78.5c-.1.27-.15.55-.28.82-3.29.46-5.07-7.43-3-12a4.58,4.58,0,0,1,1.24,1l-4.2-21.14v2.36c-3.82,3.11-.33-8.63-2.9-8,.08-1.38.71-1.68,1.43-1.79l-5.55-28c-.67-.12-.77.91-.82,2-1.59.66-1.52-5.88-.06-6.43l-11.72-59h-1c.14-2.27-.26-3.53-1-3.92.2-1.74.46-2.24.78-2.22l-5.52-27.81-10.72,54c4.24,3,5.27,17-.29,17.69a17.84,17.84,0,0,1-2.1-5.64l-3,15a23.89,23.89,0,0,1,.15,4.48l1.52-1,.46,3h2v3.91h-2v-2l-1.45,1.06-.53-3a2,2,0,0,1-1.22-1.06l-16,80.73,17.47,88,2.94-.58C791.6,808.13,793,805.47,795.74,805.68Zm19.64-130.87c2.57,4.78-4.22,4.78-4.88,0C810.76,668.83,814.58,681.84,815.38,674.81Zm-14.76,13.93c2.1-.92,1.9,2.79,2,5.91-.79-.34-1-2-2-2Z" transform="translate(-149.19 -189)" style="fill:#c1272d;mix-blend-mode:color-burn"/><path d="M556.57,473.28l35.66-79.91L585.79,379c-.93,4.9-4.26,9.53-5.64,6.48l-.46,3-.53-3c-1.44,2.31-2.44,2.31-3.88,0,.13-2.92,2.37-1.8,3.88-2l.53-2.92.46,2.92c1.53-2.47,2.14-6.63,3.23-9.9l-41-91.91c-.68,1.14-1.56-1-2.53-1.26.37-1.82.84-1.82,1.36-1.37L529.8,253.5H481.86c1,5.68-.33,12.05-5.05,15,1.87-8.81.42-11.48-1-15h-5.47L446,308c.53,3.56-.63,7.75,1.27,12,1.79-3.25,7.26-2.85,6.92,4-3.29-.19-5.21-4-6.92,2-1.91,0-1.25-5.37-3.89-4-.3-2.11,0-5.47.11-8.36L360.9,498.69c0,2.42-.58,4.67-1.76,3.94l-58,129.92-15.28-76.91-33.2,167.18,4.54,22.87,61.68,6.93L399.5,572c-.4-1.48,0-1.89.69-1.56l99.88-223.79Zm2-32.37c-1.85-.2-.73-6.51-3-5.9C556.42,429.63,559.59,435.93,558.54,440.91Zm-4-67.36c-1.84-3.53.4-5.78,1-9.9C558.47,363.79,558.21,375.46,554.58,373.55Zm16.74,45.6c1.45,1.71,3.1,2.91,3,7.89C571.65,427.64,571.06,424.32,571.32,419.15Zm1-23.77c3.3,4.64-4,11.21-4.94,7.9C567.63,397.77,571.06,398.77,572.31,395.38Zm-14.76-57.55c1.91-.79.79-7.62,4-5.9,2.57,5.18-2,6-2,11.88-2.3-.66-4.08-2.39-5.93-4C553.92,337.18,556,338.17,557.55,337.83Zm-6.39,58.48.46-2.92h-1c.85-2.93.78-7.7,4-6a15.89,15.89,0,0,0,1,6l-.46,2.92-1.52,1c.21,1.6.86,2.33,2,2v4c-1.25.07-1.38,2.52-3,2-.14-2.45-.26-4.71-2-4,0-2.59,1.72-1.8,2-4Zm-9.37,7h4c.13,9,1.18,9.89-1,15.87C540.55,416.35,541.27,412.64,541.79,403.28Zm-4.94-6c-1.12-.33-.8-3.58-1-5.9,1.58-.6,1.72,1.85,3,2C538.57,395.51,536.85,394.72,536.85,397.3Zm4-77.32c-.33,2.72-2.44,1.66-4,2v-5.92C539.55,314.6,538.83,320,540.81,320Zm-1-27.74c-.92,3.45-2.18,7.7-4,4C534.87,290.25,538.1,292.7,539.82,292.24Zm-5,43.67c2.77,2.46,3.3,8.1,2,13.81C532.17,349.45,532.76,340.89,534.87,335.91ZM530,310.09c-1.92-.72.59-2.52,2-2C533.82,308.9,531.31,310.62,530,310.09Zm-2-17.85h3c-.14,2.85-.2,5.64,1,6C530.46,304.18,527.56,296.75,528,292.24Zm-4.95,19.84c2.17-.33.45,7,1,9.9-2.44-3.06-7.26-1.2-6.86-9.9C520.24,306.77,521,317.46,523.08,312.08Zm-5.87,25.75c3.76,2.86,4.75,8.24,9.82,4-.2,11.88-3,7.9-3,7.9l.53,3-.53,3c2.43,4,1.91,9.23-2,10,4.94-9-3.1-6,1-10l-.46-3.65s1.45-2.32-5.41-6.24Zm-6.92-83.22c2.3-.08,2.9,3.38,5.94,2,.86,7.63-2.44,7-3,11.87C511.74,264.9,509.7,262.37,510.29,254.61Zm-4,11.87c-.19,1.6-1,2-1,4h-1.92C502.91,266.22,504.82,266.68,506.33,266.48ZM273.09,700.62c2.5.2,2.31,7.37,1,9.89-1.78.27-2.05-2.39-3.95-2C270.45,704.48,272.83,704.67,273.09,700.62Zm4,45.6h-3C272.63,740.44,278.49,740.44,277.05,746.22Zm8.83-10c.79-5.31.33-7.89,3-2C288.72,736.66,287.06,736,285.88,736.26Zm1-87.21c-.2-6.3,1.64-8.56,3.95-9.89C291.21,645.93,290.49,650.45,286.87,649.05Zm4.94-23.76c-1.58.53-1.71-1.86-3-2v-4h3Zm94.45-101.08h-3.9v-4h3.9Zm-.93-15.87c.66-6.1.66-3.84,0-9.95C387.37,497.26,388.9,510.27,385.33,508.34Zm2.9,25.76c2.58-6.84,2.37,10.22,0,0Zm3-67.37h-3C386.78,461,392.65,461,391.2,466.73Zm0-25.82-.47,3-1.51-1c-.2,1.6-.79,2.32-2,2v-4h2l.52-2.92,1.46.93c.2-2.26,1.57-2.12,3-1.93C393.77,439.45,392.91,441.05,391.2,440.91ZM401,494.47c-1.64-7.56,2.91,12.62,0,0Zm4-23.82c1.64-3.92-.08-2.53,0-7.9C406.88,461.75,408.53,472.57,405,470.65Zm4.94,27.74c.33-2.59,1.71-3.05,2-5.91C414.33,493.27,412,500.18,409.92,498.39Zm1-75.26c-.86-2.33-1.33-5.32-1-10C414.6,409.85,415.32,424.58,410.91,423.13Zm15.75-57.48c.06-7.11,3.22-8,6.85-8C432.65,363.12,429.75,364.65,426.66,365.65Zm11.79-37.71c1.32,1.33,1.85,4.25,2,8C437.46,337.9,438.65,331.46,438.45,327.94Zm2,27.75c-2.57-.46,1.32-3.38,0-7.9C442.87,348.06,440.7,354.5,440.43,355.69Zm16.74,19.85-.53,3-1.45.94c2.77,4.7-2.24,8.22-3.95,4,.4-2.45,1.25-4.05,3-4l-.52-3.59,1.51-2.32v-4C457,369.3,457.5,371.56,457.17,375.54ZM477.8,324c-4.62-3-1.31-9.82,0,0Zm2,61.47c-3-1.33.93-4.25,0-7.9,1.06.46.67,3.92,2,3.92C481.49,383.63,479.77,382.84,479.77,385.43Zm10.81-35.71c3.69,6-3,6.7,0,0Zm-4.86-63.39c2.63-7.17,5-9.88,2-19.85,3.37.47,4.29,5.91,4.89,11.89C489.47,279.43,488.81,285.27,485.72,286.33Z" transform="translate(-149.19 -189)" style="fill:#c1272d;mix-blend-mode:color-burn"/><path d="M167.17,292.24l.85,4.27c.6-1.37,1.73-1.69,1.73-4.27Z" transform="translate(-149.19 -189)" style="fill:#c1272d;mix-blend-mode:color-burn"/><path d="M284.62,450.52a9.37,9.37,0,0,0-.65,3.31Z" transform="translate(-149.19 -189)" style="fill:#c1272d;mix-blend-mode:color-burn"/></g></g></svg>