<svg id="f6c42bb8-4ec5-4a75-af11-303d9bfba6c4" data-name="Layer 1" xmlns="http://www.w3.org/2000/svg" viewBox="0 0 383.74 66.43"><title>Untitled-1</title><path d="M641.08,467.84h-3.29v41.54a12.88,12.88,0,0,1-.27,2.65,5.49,5.49,0,0,1,.33,1.74c-.44-.27-.41.44-.79.31a1.18,1.18,0,0,0,0-.38,13.71,13.71,0,0,1-26.66-4.41V494.23c-.1.09-.26.06-.38.1,0-.62.1-.92.38-.95V467.84h-7.35c.17.5-.47.83-.47,1.32-.29-.28-.2-1.29-.79-1a1.07,1.07,0,0,1,.08-.37H591.44s0,0,.07.05c-.07.6-.06,1.36-.48,1.27a8.54,8.54,0,0,0-.07-1.32h-.35l-.05.05a.42.42,0,0,1-.2-.05H590l-.08.21-.3-.16c-.12,1.11.25,1.22.16,2.23-1.09-.45-1.83,1-2.85-.32a12,12,0,0,1,.17-2H562.31c0,.31.07.64.09,1a5,5,0,0,1-.51-1h-3.45V480a1.48,1.48,0,0,0,.32.27c0,.45-.17.61-.32.62v52.19h39.3v-9.94H568.39V506.12h.43a2.29,2.29,0,0,1-.09-.64c.22,0,.45,0,.47-.32.2,0,.07.44,0,1h22.15v-2.88a.81.81,0,0,1-.16,0,2.64,2.64,0,0,1,.16-.67v-6.32h-6.11l0,.14-.21-.14h0c.14,1.5-.81.59-.34,0h-3.94c0,.39-.27.28-.31.62l-.07.47-.25.17c0,.25.14.36.32.31,0,.69-.56.15-.78.32v-.95l-.25-.37.08-.57H568.39V477.61h7.17c.05-.14.13-.19.22,0h23.3c0-.84,0-1.53.33-1.75.46.24.18,1,0,1.75h.81v31.53a22,22,0,0,0,6.36,16.24A24.55,24.55,0,0,0,624.09,533c13.07,0,23.53-10.47,23.81-23.84V467.84h-6.82Zm-49.57,63.44a1.05,1.05,0,0,1-.79,1C590.71,531.28,591.18,530.62,591.51,531.28Zm-11.72,1c-.52.22-.57-.53-.62-1.28C579.57,531,579.78,531.43,579.79,532.24ZM558.61,492.1c0-.19,0-.38-.16-.32,0-.41.44-.4.47,0l.24-.16.23.16c.7-.34.52,1.08,1.12,1,.06.55-.25.81,0,.95-.12.3-1-.52-1.12-1.27l-.28.16-.19-.48Zm1.26,17.52c.41-1.09.38,1.64,0,0ZM559.55,523c-.25.09-.27-.3-.47-.32V522c.25-.08.27.3.47.33Zm1.74-2.87c-.38.62-1.13-.07-1.58-.32,0-.4.2-.43.16-1v-.3H560c-.32-1.32.53-.8,1-.64C560.82,519.18,561.45,518.87,561.29,520.13Zm-.16-4.77c-.58-1,.49-1.08,0,0Zm.32-21c.06-1.39.92.33,0,0Zm.32-8.29.08.59s-.24.37-.08,2.28c-.53.49-1-.29-1.58-.64.29-.77.64-1.45,1.42-1.27l-.08-.58a6.53,6.53,0,0,0,.39-2.29C562.64,483.86,562.56,486.65,561.77,486Zm2.69-8.6c-.55-1.49.79-1.28,0,0Zm1.1,39.5-.18.49-.29-.16v.64h-.32v-1h.32l.23-.15.24-.15c0-.42-.2-.45-.15-1,.41-.1.4.66.47,1.26Zm-.15-33.76c0-.55-.13-.83-.32-1,.27-1.15,1.54-1.65,2.06-1.28C566.93,482.44,566.05,482.56,565.41,483.18Zm.78-13.7c0-1.27,1.07-1.4,1,.32C566.66,470,566.68,469.25,566.19,469.48Zm24,30.9c0,.56.16,1.6-.32,1.28,0-.58-.19-.67-.16-1.28ZM588,504.84c-.26.09-.28-.3-.48-.32v-.63H588Zm-.48-2.54c-.27-.82.18-1.12-.16-1.6C588,499.3,588.36,502.47,587.55,502.3Zm-.16-5.74h.32v1.59c-.36.1-.17-.92-.48-.95C587.26,496.94,587.39,496.88,587.39,496.56Zm-8.06,3.5c0-.27-.06-.3-.16-.32.18-.37,1,1,.62,1.92-.15-.31-.31-.63-.46-1-.72.32.26,1.29-.16,1.91-.33-.09-.15-1.19-.48-1.27C578.7,500.52,579.31,500.88,579.33,500.06Zm-.64-3.18a4.77,4.77,0,0,1-.16,1.91C578.29,498.78,578.18,496.43,578.69,496.88Zm-6.16,7h-.64C571.77,502.66,572.65,502.66,572.53,503.89ZM569,502.61c.37.17.1,1.51-.16.64C568.92,503,569,502.93,569,502.61Zm1-29.94h-.32v-1H570Zm2.68-.32c.05-.75.42.36.63.32C573.16,473.65,572.89,472.3,572.68,472.35Zm.79-1.27a2.1,2.1,0,0,1-.32-1.28c.72-.27.8.74,1.27,1C574.33,472.29,573.57,470.32,573.47,471.08Zm5.22,5.4h-.79a3.93,3.93,0,0,1,.16-1.27C578.55,475.07,578.77,475.49,578.69,476.48Zm2.53.32h-.31v-.64h.31Zm.48-2.86-.3.16-.18-.48c-.15,0-.19.26-.31.32l-.08.48s-.24-.16-.24.47c-.15-.34-.58-.09-.48-.95a.51.51,0,0,0,.48.32l-.07-.49.23-.15V473l-.23-.16.23-.16c-.09-.65-.48-.63-.16-1.28.42-.1.41.67.48,1.28l.23-.16-.08.48v.63l.29-.16a3.17,3.17,0,0,0,1,1.11C582.36,475.51,582,474.38,581.7,473.94Zm6.33,3.5c-.61-.25-.25-2.1.31-1.91A3.57,3.57,0,0,1,588,477.44Zm2.37-2.87c-.12-1,.16-1.16.16-1.9.67-.2.58,1.15.79,1.9.48.1.62-1,.94-.31C592.16,476.56,591,474.84,590.4,474.57Zm2.05-5.09c0-.7.41-.69.8-.63C593.63,470.4,592.93,470,592.45,469.48Zm3.33-.32c-.5-.22-.27-1,0-1.27C596.25,468.1,595.62,468.57,595.78,469.16Zm.62,3.51c.12-.57.3-.05.48,0C596.76,473.23,596.6,472.71,596.4,472.67Zm3.49,1.59a1.5,1.5,0,0,1-.48-1.27c-.5.89-1.09-.5-1.42,1.58-.46-.45.2-1.23,0-2.22.6.62,1.11-.12,1.74-.32A4.18,4.18,0,0,1,599.89,474.26Zm2.05,17.2Zm-.15-7.33c.06.77-.29.7-.16,1.59-.2-.1-.25-.55-.48-.63C601.29,484.62,601.28,483.86,601.79,484.13Zm-1.42,12.75c.08-1.58.82-1.26,1.1-.32C601.59,497.75,600.49,497.15,600.37,496.88Zm.94,12.74-.08.48-.23-.16c0,.38-.18.2-.32,0s.13-.38.16-.64l.08-.47.23.16c0-.56-.12-.82-.31-1h-.32c.72-1.24,1,1.11,1.42,1.59C601.92,510.42,601.41,509.71,601.31,509.62Zm.63-11.15c.12-.57.29,0,.48,0C602.3,499,602.13,498.51,601.94,498.47Zm.48-28c.46,2-.28-1.22,0,0Zm1.58,9.87c-.15-.47-.53-2.09-.16-2.54C604.44,477.55,604.14,480,604,480.31Zm1.27-5.1c.73-.14,1.09-.51,1.1,1.27h-1.26C605.09,475.92,605.3,475.81,605.27,475.21ZM606.53,488c-.62.1-.86-.62-.78-1.92.44,1.14,1.57-1.09,1.57,1C607.06,487.87,606.39,486.12,606.53,488Zm1.43,1.91c-.07-1,.14-1.43.63-1.28C608.7,489.66,608.32,489.76,608,489.87Zm1.58,22c-.33.12-.42-.23-.64-.32-.13-1,.26-1,.32-1.6C609.62,510,609.54,511,609.54,511.86Zm19.14,15.92c-.33.13-.42-.22-.64-.32,0-.84.23-1,.64-1Zm13.12-49.7c0,1.06-.83.36-.78-.64C641.32,477.58,641.31,478.35,641.8,478.08Zm-1.26,30.59c-.49-.23-.21-.86-.15-1.59C641.09,507,640.79,508.19,640.54,508.67Zm1,6.69c-.42.08-.68-.12-.63-1C641.28,514.31,641.54,514.51,641.49,515.36Zm-.32-11.15v-1.28c.69.12,1.06.85,1.11,2.23A2,2,0,0,0,641.17,504.21Zm4.6,13.38c-.45-.1-.34-1.11.14-1A2.84,2.84,0,0,0,645.77,517.59Zm0-5.73c.36-.11.17.91.46.95C646.06,513.73,645.72,512.4,645.77,511.86Zm.14-39.19a4.22,4.22,0,0,1,1,3.19C646,476,644.45,473.33,645.91,472.67Z" transform="translate(-308.41 -466.95)" style="fill:#3579c9"/><path d="M553.55,522.68c.27-1.13-.11-.77-.16-1.91.35-.25.56,1.6.62,0l0,0v-53h-.65v.05l0-.05h-4.79l.09.37a6.83,6.83,0,0,1-1.59,1.27,2.51,2.51,0,0,1-.37-1.64h-2.75v28.51H517.29V486.21c-.08.41-.29.55-.61.47,0-.85.4-1,.61-.69V467.84h-10v10a23.9,23.9,0,0,0-2.29-2.82.86.86,0,0,1,0,.16c-.48.23-.47-.55-.94-.32v-.63l-.3.16-.18-.48a1.49,1.49,0,0,1-.5-.71,23.13,23.13,0,0,0-14.65-5.56H468.67v65.7h5.76c.09-.13.2-.16.28,0h3.82V514.7h10.15l.77-.06c.62,0,1.32-.09,2.14-.22a23.83,23.83,0,0,0,9.25-3.58l.24-.17.06-.06c.53-.36,1-.75,1.52-1.15,0-.4.28-.77.58-.78a2.72,2.72,0,0,1,0,.28c.37-.31.73-.63,1.07-1,0-.3-.08-.62-.13-.9.25,0,.42.19.52.5a23.34,23.34,0,0,0,2.55-3.07v1.29c.06-.1.14-.14.25,0v.64c-.14-.07-.15.12-.16.32a.08.08,0,0,1-.09,0V533h10V506.38h26.64v11.84c.52.16.38,1.22.28,2.23a.41.41,0,0,1-.28-.11V533H554V522.51A.39.39,0,0,0,553.55,522.68Zm.16-42.69c.12.06.14.32.3.32,0,.26-.16.31-.15.63-.13-.05-.15-.32-.31-.31C553.57,480.37,553.71,480.31,553.71,480Zm-82.27,2.87c-.53-.28-.13-.71,0-1.28C471.84,481.64,471.5,482.66,471.44,482.86Zm12.66-10.51a1.47,1.47,0,0,1,.95,1.91c-.29-.95-.22-1.43-.95-.95Zm-8.54,14c.52.48-.33.78-.16,1.6C474.81,487.68,475.33,486.78,475.56,486.36Zm-1.11-2.87c.46-1.75,1-.61,0,0Zm.16,11.79c0-.74.42-.73.63-.31C475.2,495.71,474.82,495.7,474.61,495.28Zm.32,12.75c-.18-1,.24-.78.31-1.27C475.58,506.85,475.28,508.26,474.93,508Zm.63-8.29h-.32v-.95l-.24-.37s.09-.59-.23-.59v-1.27h.32v1.27l.23.37s-.08.59.24.59Zm.32-9.55h-.32c-.07-.68.23-.61.47-.64C476,489.81,475.88,489.87,475.88,490.19Zm.78,7.33c-.51-.48.33-.79.16-1.6C477.3,496.31,476.72,497.14,476.66,497.52Zm1.12,11.78a1.29,1.29,0,0,1,.78-1.27C478.36,508.61,478.26,510.25,477.78,509.3Zm3.79,0c-.49.15-.56-.79-.32-1.27C481.54,508.1,481.61,508.57,481.57,509.3Zm4.9-1.91c-.28,0-.32-.39-.63-.31,0-.57.27-.74.63-.64Zm3.8,3.19c-.44.54-.83,1.81-1.27.64.05-.65.43-.63.48-1.28a4.24,4.24,0,0,0-.63-.95c.22-1.39.66.53,1.42,0C490,509.6,490.25,509.79,490.27,510.58Zm7.11.32c-.05-.55.13-.6.32-.64,0,.27.06.3.16.32C497.84,511,497.57,510.84,497.38,510.9Zm-9.44-6.39h-9.41V477.87h9.41a13.32,13.32,0,1,1,0,26.64Zm13.88,2.88c-.6-.17-1-1-.63-2.23h.63A4.32,4.32,0,0,1,501.82,507.39Zm2.84-20.07a5.7,5.7,0,0,1,1.43-2.55c.09.46-.19,1.65.16,1.59C505.83,487.58,505.57,487.5,504.66,487.32Zm11.71-13.38a1.5,1.5,0,0,1,.47.95l-.07.32-.09.32c.19.06.17.51.16,1-.21,0-.35-.14-.47-.32v-.63l.08-.32.07-.32C516.35,474.84,516.36,474.39,516.37,473.94Zm-8.22-1.59c-.26.08-.28-.3-.48-.32v-.64h.48Zm1.26,24.53c-.36.1-.17-.92-.47-1,.06-.39.2-.65.47-.64A2.21,2.21,0,0,1,509.41,496.88Zm1.11,24.22c0-1.19.23-.82.64-.65C511.13,521.63,510.92,521.26,510.52,521.1Zm.78-21c-.19-.11-.13-.84,0-.95C511.65,498.82,511.67,500.27,511.3,500.06Zm3.17,27.08c-.35.18-.22-.61-.48-.64,0-.37.3-.26.48-.32Zm2.62-6.74-.25.37c-.62.72-.28,2.55-.94,2.55.34-.67-.09-.91,0-1.92.5.28.49-.5.78-.63l-.07-.58.23-.38c0-.55-.44-1.58,0-1.9s.39,1.34.16,1.9Zm29.5-1.22c-.15-.68-.68-.56-.64-1.59.29.61.53-.27.8-.65.2.12.24.57.46.65C546.63,517.62,546.61,518,546.59,519.18Zm.46-46.51c0-1.44.48.13,1-.32C547.91,473.4,547.41,472.8,547.05,472.67Zm1.11,54.79h-.47v-1c.25-.08.27.31.47.32Zm0-34.41c-.43,0-.31.53-.63,0C547.4,491.82,548.29,491.82,548.16,493.05Zm1.11,37c-.33.13-.42-.22-.63-.32,0-.51.15-.55.16-1C549.21,528.64,549.32,529.18,549.27,530Zm.31-37h-.46c0-.69.13-1,.46-.95Zm.16-5.73h-.47c0-.51.16-.55.16-1,.12.07.15.32.31.32Zm1.59-15.93c.34-.72.54.26,1.1,0C552.74,473.18,551,473.18,551.33,471.39Zm1.42,43h-.32v-.95h.32Z" transform="translate(-308.41 -466.95)" style="fill:#3579c9"/><path d="M462.55,519.78c-.11.41-.42.39-.76.35,0-.9.29-.88.58-.75l-5.31-11.78a22,22,0,0,0-12.19-40H433.43a.17.17,0,0,1-.22,0h0c.14.9.24.35.63.31,0,.79-.25,1-.31,1.59-.24,0-.59-.11-.64.32-.08,0-.18-.26,0-.32,0-.6-.18-.71-.16-1.27l-.24.16-.07-.48c-.29-.05-.37.32-.32,1a2,2,0,0,1-.32-1.27h-5.68v9a30.93,30.93,0,0,0-17.66-8.86l0,.12-.25.38c.1.75.25,1.48-.32,1.59.18-1,0-.85.16-1.59l.09-.48v-.06a30.29,30.29,0,0,0-3.83-.25,31.09,31.09,0,0,0-25.76,14l-2.22-11.54a3.94,3.94,0,0,1-.08.88c-.58-.08-.61-.44-1.11,0,.27-.87.3-2.17.8-2.55,0,.26-.07.3-.16.32a.75.75,0,0,0,.39.55l-.41-2.13L373,467l-4.62.08-2.12,0-.84,1.94-8.95,20.69a.54.54,0,0,1-.07.17l-.24.55a1.43,1.43,0,0,0,0,.35.24.24,0,0,1-.13-.07L353.29,497c0,.06,0,.11,0,.17l-.08,0-4.75,11-7-16a1.74,1.74,0,0,1-.36.24c.06-.21.11-.47.16-.69l-5.46-12.53a.51.51,0,0,0-.24.47,1.07,1.07,0,0,1,.1-.78L334,475.14a6.32,6.32,0,0,0,.12.72l.23.37-.07.57c.25.62-1.43.86-.95,0l-.08-.48.08-.46a.93.93,0,0,0-.32-.65l-.07.49-.25-.17c0,.47-.38.29-.62.33,0-.21,0-.39.14-.33s.18-.5.16-1l-.07-.31.07-.32c-.24-.08-.1-.7,0-.95.18.06.26.35.32.63l.16-.16.16-.15a.4.4,0,0,1,.23.06l-1.89-4.31-.84-1.94-2.11,0L323.8,467,321,467l-.52,2.72-1.7,8.88c.09.3.36.23.47.48-.09.48-.23.8-.32,1.28a.67.67,0,0,0-.43-.31l-.52,2.72c.09.09.17.17.32.14-.09.37-.29.58-.44.52l-.34,1.74a.43.43,0,0,1,.46.29c-.1-.1-.38.54-.61.52l-8.24,43.12-.75,3.9h10l.52-2.65,2.14-11c-.21-.12-.45-.19-.58-.49l-.23.18.07-.48c-.66.05,0-.49,0-1-.27-.85-.63.47-.78-.65l-.25.17-.23-.17c-.06.41-.2.66-.48.65-.38-.65.17-2,.48-1.27l.23-.16.25.16c.34-1.6.27,1.58,1.1.95v1l.24-.16-.08.48c0,.29.19.31.35.34l.39-2a.23.23,0,0,0-.11,0,1.6,1.6,0,0,1,.23-.63l.06-.33-.21-.14.08-.48c-.88.3,0-.91.43-.9l1.7-8.71c-.14.1-.35.06-.23.69-.33-.11,0-1.52.31-1.28,0,0,0,.07,0,.12l.86-4.41a1,1,0,0,1-.4-.17c0-.6.18-.71.16-1.27l.08-.16.08-.16c-.19-.05-.18-.5-.16-1,.18,0,.24.47.32,0,.16,0,.19.57,0,.64l.07.32-.07.32h.2l2.7-13.77,4.34,10c0-.85.94.55.18.29V496l.84,1.93c.13-.22.28-.39.44-.42.2-1-.5-.25-.31-1.28h.31l-.08-.59.24-.37c.27-1,.91,0,1.11-.63.36.13.16,1.74-.16,1.59l-.08.48-.23-.16c0,.64-.77,1.38-.48,1.59a3.42,3.42,0,0,0-.47.47l1.43,3.27.07-.39.23.16v-1.28c.33.18.31,1,.64.32-.45-.56-.38-2.49-1.11-1.59.16-.65.61-.69,1.11-.64.13-.26-.13-2.1.63-1.91a1.25,1.25,0,0,0,.63,1.91c.54-.29,0-.72.32-1.27.21.1.31.45.63.32a14.49,14.49,0,0,1-1.1,1.91l-.08.48-.24-.17c0,1.45.84,1.29,1.58,1.28a3.39,3.39,0,0,1-.16,2.23c-.24-.09-.1-.69,0-.95-.49.06-.83,1.41-1.26.63.2.76,0,.6.16,1.59l.23-.15.24.15h.79c.27,1.3-.94,1.26-.47,1.92a3.12,3.12,0,0,0-.57.66l8.32,19.08h.32c0,.24,0,.44-.05.63l.69,1.59c.34-1.07,1.05-.82,1.57-1.26,0,1.59.35,1.63.32,3.82l.23-.16.23.16c.49-.29.64-1.27,1-1.91a1.81,1.81,0,0,1,.18,1.1l1.65-3.8,8.6-19.72c0-.1-.07-.18-.15-.19,0-.31.2-.3.36-.31l5.11-11.73a2.63,2.63,0,0,1-.88-2.3c.78-.25.68,1.27,1.28,1.39l3.41-7.81,4.3,21.25a33.18,33.18,0,0,0,3.91,10.27c.13-.3.35-.4.38-.88.3.22,0,.83-.24,1.11.22.37.44.73.67,1.09h0l0,0a34.06,34.06,0,0,0,3.13,4l.2.26.17.17c.48.51,1,1,1.49,1.47l.64.63.14.1a30.75,30.75,0,0,0,3.21,2.47l.22.17v0A30.31,30.31,0,0,0,404.28,533c.84,0,1.67,0,2.5-.11.22-.28,0-1.48.29-1.56l-.08-.48.24.16c.3-1.26,1.25.47,1.42-1.27.55.62-.19,1.27-.16,1.91-.22-.46-.76.08-1.1.32l.07.48-.23-.16c-.18,0-.17.42-.27.59a31.91,31.91,0,0,0,23.24-13.67,3.29,3.29,0,0,1,0-.93c.21,0,.31.15.33.49a30.39,30.39,0,0,0,5.18-16.91V500.1a4.46,4.46,0,0,0-.13.6c-.43-.34,0-1.05.13-1.46v-7.12a.27.27,0,0,0-.13,0,.69.69,0,0,1,.13-.63V477.28h8.81a12.24,12.24,0,0,1,6.3,1.75H451v.16a12.26,12.26,0,0,1-6.56,22.62H438.4v9.74l6.44,0h0a22.22,22.22,0,0,0,3.09-.2L457,531.44l.88,1.93h10.75l-2.09-4.64Zm.67-36.6h-.32c0-.27-.06-.31-.15-.32C462.68,482.25,463.47,482.39,463.22,483.18Zm-.63,14.34h.47v1c-.25.1-.27-.3-.47-.32Zm-1.42-13.07c.18.06.44-.05.47.32l.24-.16.07.48c.19,0,.18-.5.16-1,.72.1-.23,2-.32,1.28l-.15.16-.15-.16C461.2,485.44,461.11,485.09,461.17,484.45ZM459,477.77h.32v.63H459Zm-.79,12.42c-.33.13-.41-.22-.64-.32C457.55,488.94,458.28,489.1,458.16,490.19ZM317.07,515.68c-.51.49-.71.1-.64-1.28C316.93,514.25,317.14,514.67,317.07,515.68Zm-.32-15.94c.52.78-.44,1.52,0,0Zm-.32-6.69c.2.09.16.64,0,.64-.19,1,.51.25.32,1.28h-1C315.76,493.84,316.55,494.34,316.43,493.05Zm-.94,21.35c-.57-.2-.15-1.33.3-1.27C315.79,513.76,315.37,513.53,315.49,514.4Zm-.32-2.54c.13-.48.39-.7.78-.64C316.12,512.28,315.47,511.71,315.17,511.86Zm.32-3.83h-.32v-.64l-.25.16.09-.47c-.13-.08-.19-.28-.16-.64h.32v.64l.23-.17-.07.48h.3C315.63,507.71,315.51,507.77,315.49,508Zm-.48-8c.13.17.25.34.48.32,0,.61-.53.22-.48,1C314.53,501.13,315.16,500.66,315,500.06Zm-.32,1.92c.44.56-.22,2.67-.63,1.59C314.08,502.65,314.73,503,314.69,502Zm-3.64,23.25c.41.45-.51.85-.79.95C309.85,526.62,311,525,311.05,525.23Zm-.47,3.5c.27-.61,1-1.38,1.42-.63C312,529.85,311.14,529.12,310.58,528.73Zm1.9-8.92c.3.13-.11.41-.32.32S312.27,519.73,312.48,519.81Zm-.32,13.07c0-.82,0-1.64.48-1.6C312.32,531.51,312.73,533.18,312.16,532.88Zm.79-12.75c0-.56.27-.72.63-.64C313.55,520.06,313.32,520.22,313,520.13Zm.95-6.36c-.48-.38,0-1.66-.64-2.23,0-.6.27.17.32-.32.17.69,0,1,.64,1.27l.08-.48.07.48c.25,0,.55,0,.48.64-.23-.13-.26-.39-.48,0h-.15v-.32C314,512.93,313.9,513.22,313.9,513.77Zm.63,17.19c.51.76-.56,1.29,0,0Zm.8-5.41v-.32l-.25-.16.09-.48c-.5.15-.71-.27-.64-1.27l-.23.16.07-.48c0-.2,0-.38-.15-.32,0-.31.12-.38.15-.64.16,0,.19.26.32.33v.31l.08.32-.08.32c.11.3.72-.16.8.95l.23-.16.07.48c.23-.09.31-.44.64-.32C316.26,524.62,315.9,526.26,315.33,525.55Zm.46-2.87c.12-.73.53-.85.64-1.58C316.81,521.56,316.18,522.68,315.79,522.68Zm1.28,5.42c-.15-.34-.59-.1-.48-1C316.74,527.48,317.17,527.24,317.07,528.1Zm-.8-10.19c-.24-1.35.83-.06.8-1,.37.21.25,1.4.94,1C317.61,519.58,317.07,517.43,316.27,517.91Zm1.43-15,.07.48-.23-.16v.64c-.2-.13-.33-.42-.32-1h.16l-.08-.48.24.16c0-.25.13-.36.32-.31,0,.19,0,.37.15.31C318,502.86,317.88,503,317.7,502.93Zm.78-7c.08-1.38.93.34,0,0Zm.48-8.28c-.33.13-.41-.22-.63-.32,0-.56.27-.72.63-.64Zm0-3.19c.11-1.46,1,.26,0,0Zm1.42,14.66v-1.28c.43-.22.32.64.64.64C321,499,320.74,499.2,320.38,499.11Zm.64-12.43c0-.51.14-.54.16-1C321.48,485.6,321.41,487.17,321,486.68Zm.16-7.65c.5,1.07-.38,1.14-.48,1.91l-.08.48-.24-.16c0,.81,0,1.65-.47,1.6a2.4,2.4,0,0,1,.32-1.6l-.08-.47.23-.16c0-1,.61-.68.64-1.6l-.08-.48.24-.15c0-.38-.28-.72,0-1l-.08-.32.08-.32c.12-1.34.63-1.08.15,0l.24.16.24.16c.1-.43.6,0,.64-.64l.07-.46.23.14c0-.83.23-1,.64-1-.58,1.57.34.82-.16,2.87-.44-.28.31-1.17-.32-1.28l-.07.48-.23-.16c-.51-.27-.5.5-.64,1l.23.37-.07.58c1-.26,0,1-.16,0l-.21-.38-.27-.25h-.16l.09.47Zm.31,14v-.63l.08-.32.08-.32h-.16c-.14-1.12.52-.55.48,0l.16-.16.16-.16c.38.13.34-.57.78-.32.17,1.07-.49.5-.78.64l-.16.48-.16-.48.07.48-.23.16C322.1,493,321.77,493.65,321.49,493.05Zm1,18.17c-.31-.13-.13-1.24-.64-1,0-.46.47-.11.48-.64C322.63,509.56,322.35,510.75,322.45,511.22Zm1.1-16.89.08.48-.24.16c.15,1.14-.63.44-.94.63-.17-1.07.48-.49.78-.63l-.07-.59.23-.37c-.44-.88.23-.3.32-1C324,492.92,323.7,494.25,323.55,494.33Zm.16-13.39c0-.34.31-.21.31-.63C324.46,480.45,324,481.32,323.71,480.94Zm2.69-11.46c-.59-1,.47-1.07,0,0ZM325.76,486c.08-.38.2-.65.48-.63C326.16,485.8,326,486.06,325.76,486Zm.8-11.15-.29.16s-.19-.48-.51-.48v-.63h.32v.63l.28-.15s.2.47.35.15C327.53,473.88,326.17,476.91,326.56,474.89Zm1.42-4.77c-.55-.26-.67.59-1,0-.14-.15.53-.4,1-1Zm1.11,2.23c-.35-.52.05-2.2.47-2.23C329.34,470.75,329.26,471.63,329.09,472.35Zm2.05,11.46c0-.69.13-1,.48-.95C331.64,483.56,331.48,483.88,331.14,483.81Zm2.22,4.78H333c0-.26-.07-.3-.16-.32C332.82,487.65,333.6,487.81,333.36,488.59Zm.63-6c-.16,0-.13-.39-.16-.64-.27,0-.41.24-.47.64-.48-.46-.2-2,.31-2.23v.95C333.79,481.43,334.42,481.49,334,482.54Zm.32,3.82c.24-.23,0-1.55.47-1.27C334.83,485.92,334.72,486.46,334.31,486.36Zm2.05.64a2.64,2.64,0,0,0-.15,1C335.77,487.86,335.87,486.85,336.36,487Zm-.15,2.55c-.08.4-.21.65-.48.64C335.8,489.8,335.93,489.53,336.21,489.55Zm.15,4.78h-.31c-.12-.87.3-.64.31-1.28.49-.1-.4.93.16,1C336.55,494.28,336.46,494.31,336.36,494.33ZM344.9,515c-.11.56-.28,0-.48,0C344.54,514.47,344.71,515,344.9,515Zm-4.11-18.8c.3.12-.1.41-.32.32S340.57,496.15,340.79,496.24Zm-1.11,5.42a2.65,2.65,0,0,0,.16-1c.12.17.25.33.47.32C340.27,501.57,340,501.74,339.68,501.66Zm.48,6.69c-.36-2,.31-.38.63-1C341.17,507.68,340.44,508.36,340.16,508.35Zm.63-4.46c0-.81.59-.76.8-.32C341.57,504.38,341,504.33,340.79,503.89Zm1.58-1.59c-.39-.32.13-1.42.48-1.28C342.8,501.67,342.42,501.65,342.37,502.3Zm-.32-4.15c.64-3.83,1.69.6,0,0Zm2.06,19.76c0-.92,1.09.27,1.11-.64C345.78,518.33,344.44,518.43,344.11,517.91Zm1.27-13.07c-.56-1.61.41-1.75,0,0Zm.79,2.87c-.49.15-.57-.8-.31-1.27C346.13,506.51,346.22,507,346.17,507.71Zm1.26,11.78-.28.16-.19-.47c-.74,1,.1-1.48.32-.33l.24.18a4.77,4.77,0,0,0,.23,1.74C347.48,520.69,347.39,520.22,347.43,519.49Zm2.06,7.65c-.58.12-.41-1.29-1.1-1,.12-.89-.23-.82-.16-1.59.36.09.59-.07.62-.64.67.44.5.58,1.27.64C349.82,525.24,349.91,526.71,349.49,527.14Zm-.32-9.23c.24-.46.69-1.19.95-.64A.77.77,0,0,1,349.17,517.91Zm1.27-12.11c-.2-1,.48-.19.63-.64.1-.28-.32-.28-.31-.32,0-.78.79-1.86,1.26-1.27C351.47,504.27,351.58,506.28,350.44,505.8Zm1.26,7.33c.07.09-.22.39-.16,0C351.7,512.18,352.47,514.42,351.7,513.13Zm.32-3.83c-.49-.31.07-1.07.16-1.27C352.76,508.53,351.81,508.51,352,509.3Zm.32-2.86c-.63-.34,0-1,0-1.92.45,0,.72.78.79-.31.14.19.28.38.31,0C353.71,505,352.54,505.55,352.34,506.44Zm2.05-4.78c.05-.57.28-.73.64-.64C355,501.57,354.75,501.74,354.39,501.66Zm.8-1.92c-.19,0-.14-.58-.16-.95.25-.1.26.3.48.32C355.46,499.45,355.19,499.32,355.19,499.74ZM355,495.6c-.27-.05.07-1.51.48-1.27,0,.37,0,.57.14.64C355.77,495.83,354.91,494.74,355,495.6Zm2.21,6.06a.66.66,0,0,1-.79-.32C356.43,500.82,357.49,500.7,357.24,501.66Zm1.74-2.23c-.43-.15.23-1.12.48-.64C359.48,498.84,358.92,499.41,359,499.43Zm.95,2.23c-.37-.09-.09-1.41,0-1.6C360.47,500.29,360,501,359.93,501.66Zm2.54-19.44c-.08.4-.21.65-.48.64C362.05,482.47,362.19,482.2,362.47,482.22Zm-.16,7.65c-.1-.83.06-1.15.46-1C362.61,489.21,362.73,490.09,362.31,489.87Zm.78-4.46h-.47c.06-.42.28-.5.31-1,.14-.05.16.13.16.32Zm1.91-9.25c-.07-.11-.17,1-.16,1C364.58,477.21,364.62,475.41,365,476.16Zm-.32,9.25c.18-.48.14-1.43.62-1.28C365.25,484.87,365.21,485.63,364.68,485.41Zm1.42-10.52c-.13-.06-.16-.32-.32-.32C365.87,473.83,366.53,474.38,366.1,474.89Zm1.27,5.74c-.34-.7.16-2.42.78-2.23v1c-.4.56-.49-.47-.31,1C367.61,480.28,367.39,480.26,367.37,480.63Zm.94,2.55a.6.6,0,0,0-.63-.32C367.63,482.3,368.57,482.29,368.31,483.18Zm1.43-8.61c-.05-.51.15-.54.15-.95C370.2,473.5,370.12,475.08,369.74,474.57Zm.31,11.79c0-.87.59-.72.79-1.27C371.16,485.43,370.38,486.24,370.05,486.36Zm2.37-.32v1H372c0-.32.12-.38.15-.64L372,486l.08-.32c-.41,0-.31-1.06-.31-1.91.47,0,.39,1.12.46,1.91l.25-.15Zm2.37-14.33c0,.25-.15.32-.15.64h-.31C374.25,471.66,374.55,471.74,374.79,471.71Zm-1.57,12.42c.47-1.17.53,1,0,0Zm0-4.14c.1-1.46.95.26,0,0Zm1.11,0c-.1-.7.3-.45.31-1C375,479.16,374.65,480.27,374.33,480Zm.94-1.59c0-.37,0-.57-.16-.63,0-.36.32-.22.32-.65.18.07.09.32,0,.32,0,.56.28.73.64.64C376.09,478.77,375.5,478.22,375.27,478.4Zm.64,7c.06-1.38.92.33,0,0Zm1.42-1.6c-.06.5-.28-.27-.32.32-.18-.05-.13-.57-.15-.95.22,0,.45.05.47-.32C377.89,483,376.78,483.72,377.33,483.81Zm47.13-2.55c.51.76-.55,1.29,0,0Zm-6.16-5.1c-.1.67-.24,1.22-.8,1C417.48,476.14,418.07,475.7,418.3,476.16Zm-7.44-6c-.48,4.65-1.79-2.11,0,0Zm-2.21,0c.43,1.29-1.22,2.88-1.26,1C408,471.47,408.52,471.48,408.65,470.12Zm-3,5.74c0,.56.2.67.16,1.26a.63.63,0,0,0-.64-.32C405.14,476.11,405.3,475.79,405.64,475.86Zm-.94-6.38c.15,1.49-.74.56,0,0Zm-.64,2.55c0,.56-.27.72-.63.64C403.47,472.1,403.7,471.94,404.06,472Zm-5.85-2.55c0,1.21-.23,2.1-.79,2.23C397.56,470.72,397.58,469.49,398.21,469.48Zm-7.75,12.1c0,.81-.47,1.33-.79.64C389.69,481.53,390.07,481.54,390.46,481.58Zm-6-1.59h.32v.64h-.32Zm1.75,1.59-.08-.32.08-.32c.05-.74.7-.19.63.32l.08.48-.24-.16c-.09,1.19.49,1.85.16,2.55-.48.31-1.5-.71-2.53-.32C384.58,482.26,385.38,481.2,386.19,481.58Zm-.63,4.46c-.13-.05-.16-.32-.32-.32v-.63C385.58,484.94,385.54,485.54,385.56,486ZM383,488.91c-.33.14-.43-.21-.64-.32C382.34,488,383.28,488,383,488.91Zm-1.28-9.56c0,1-.55,1.44-.78,1C381.11,479.75,381.27,479.2,381.75,479.35Zm-2.37,19.76h-.31v-.64h.31Zm.64-15.93c.39.84-.46,1.85,0,0Zm.63,7.64h-.32v-.95h.32Zm1.1,5.42.09.48-.23.16c.14,1.07-.23,1-.64.95-.11-.85.33-.61.48-.95l-.09-.48.25-.16c-.15-1,.4-.66.46-1.27.3,0,.12,1,.48.95C382.31,496.6,382.17,495.7,381.75,496.24ZM386,515.36c.86-.35,1.53,1,1.1,2.23l.09.48-.09.48c.13.06.2.26.16.63H387v-.63l-.24-.16.08-.48A2.51,2.51,0,0,1,386,515.36Zm1.42,10.19v-.32l-.07.16-.09.16H387v-.64h.31l.09-.48.07.48c.1,0,.19,0,.16-.32C387.92,524.47,387.85,526.05,387.45,525.55Zm3.33,0c-.29-.08-.36-.55-.32-1.28C390.94,524,390.74,525,390.78,525.55Zm.63-6.37h-.31v-.63h.31Zm3.8,10.51c-.08-.88.85.25.78-.64C396.39,529.39,395.46,530.58,395.21,529.69Zm2.53-2.55c.19.14.32.41.32,1C397.72,528.25,397.75,527.64,397.74,527.14Zm-.32-3.19v-1.27C398.35,521.13,398.66,524,397.42,524Zm6,3.19.08.48-.24-.16c.06.62-.72.46-.47-.32l-.24.16.08-.48c0-.37-.25-.34-.47-.32.06-1.13.68-.63.31-1.91.87-.88,1.54.49,1.58,2.23C403.85,526.92,403.77,527.28,403.43,527.14Zm1.89-1c-.17-.46,1.14,0,1-.95C406.89,525.44,405.61,526.92,405.32,526.18Zm13.46,1.28c0-.56.26-.72.62-.64C419.49,527.81,419,528,418.78,527.46Zm0-9.87c.06-.4.2-.65.47-.65,0,.53-.16.56-.16,1C419,517.84,418.93,517.59,418.78,517.59Zm1.73,4.13v-.32l-.28.16-.19-.46h-.32a2.67,2.67,0,0,1,.16-1c.12.08.19.27.16.64l.29-.16.18.49c.18-.08.25-.37.32-.65.21,0,.15.56.32.65C421.1,521.65,420.87,521.82,420.51,521.72Zm.32,3.51c.66-.15,1.16,0,1.1,1.27C421.35,526.51,420.85,526.36,420.83,525.23Zm1.42-11.78a.8.8,0,0,0-.28-.27,23.13,23.13,0,0,1-5.21,5.42c-.11.54-.12,1.27-.52,1.21a4.3,4.3,0,0,1,.15-.93,20.83,20.83,0,0,1-12.11,4c-10.15,0-18.93-7.7-21.19-17.69l-.24-1.24a22.4,22.4,0,0,1-.34-3.77,22.77,22.77,0,0,1,1.28-7.48c0-.32.07-.7.24-.63a23,23,0,0,1,9.58-11.48,3.74,3.74,0,0,1,.17-1.2c.13,0,.21.5.2,1a20.7,20.7,0,0,1,10.3-2.79c11.81,0,21.78,10.36,21.78,22.61a23,23,0,0,1-3.73,12.5A2,2,0,0,1,422.25,513.45Zm.95,4.78a2.51,2.51,0,0,1,.8-1.59C423.92,517.55,423.66,518.09,423.2,518.23Zm.8-3.83c0-.6.52-.22.46-.95C424.8,513.54,424.3,514.55,424,514.4Zm2.05-.32c-.53-.28-.13-.71,0-1.27C426.44,512.86,426.1,513.88,426.05,514.08Zm2.38-27.4H428C427.72,485.75,428.66,485.75,428.43,486.68Zm.31,16.57c-.06,1.12-.42.82-.79.64C428,503.2,428.34,503.21,428.74,503.25Zm-.31,4.14c0,.57-.21.67-.16,1.28C427.8,508.6,427.89,507.15,428.43,507.39Zm-.16,3.83c.25-.1.26.3.47.32v.63h-.47Zm.16,9.88a4.36,4.36,0,0,0,0-1.61C428.9,519.49,429.07,521.37,428.43,521.1Zm0-4.16c0-1.38.27-.57.78-.62C429.19,517,428.82,517,428.43,516.94Zm.94-21.66c-.69,0-.72.48-1.1-.31.07-.48.23-.81.32-1.28.25,1.08.41.05.94,0C429.59,494.46,429.24,494.38,429.37,495.28Zm.95,14H430c-.07-.67.23-.6.48-.63C430.45,508.92,430.32,509,430.32,509.3Zm.8-3.18c.06-.61.05-1.38.46-1.28C431.52,505.46,431.53,506.21,431.12,506.12Zm.78-19.76h-.32v-.64h.32Zm.16-8.92c-.49.15-.56-.8-.32-1.28C432,476.25,432.1,476.72,432.06,477.44Zm1.58,8c-.07.8-.34-.53-.31-1A3.09,3.09,0,0,1,433.64,485.41Zm-.63-10.2c.19.14.32.41.32,1C433,476.31,433,475.72,433,475.21Zm.16-1.27c-.35.06-.51-.26-.48-.95C432.84,473.33,433.28,473.08,433.17,473.94Zm-.32,28a3.69,3.69,0,0,1,.16-1.28C433.29,500.6,433.29,502.49,432.85,502Zm1.26,8.6c-.13-.19-.27-.39-.31,0-.31-.32-.25-1.41-.79-1.28.23-1.38,1-.09,1.26.32A2.84,2.84,0,0,0,434.11,510.58ZM436,469.8c0-1.36.38-2,1.11-1.91C437.22,469.46,436.42,469.25,436,469.8Zm3.48,4.14c0-.26.16-.32.16-.63C440,473.48,439.75,474.81,439.49,473.94Zm8.86-3.82c0-.6.81,0,.95.32C449.81,470.82,448.51,470.4,448.35,470.12Zm3.17,4.45H451c0-.3.19-.24.32-.31,0-.27-.07-.3-.16-.32C451.26,473.06,451.7,473.92,451.52,474.57Zm1.26-1.26c.12-.58.28-.06.47,0C453.14,473.87,453,473.35,452.78,473.31ZM441.71,508l-.08.48-.24-.16c-.48.84-1.45,0-1.9-.32.07-.61.46-.58.32-1.59.67.14.7,1.56,1.42,1.59l.25-.16.23-.16C441.22,506.45,442.32,507.46,441.71,508Zm3.64,2.55c-.37-.63.32-2,.63-1.28C446,510.11,445.75,510.53,445.35,510.58Zm4.75-2.23a16.28,16.28,0,0,1,.15-2.23c.25.14.13,1,.63.64C450.61,507.26,450.55,508.22,450.1,508.35Zm7.27,12.75c-.46,0-.38-1.81-.16-2.25C457.68,519.41,457.39,520,457.37,521.1Z" transform="translate(-308.41 -466.95)" style="fill:#3579c9"/><path d="M668.41,493.42c-4.2-.44-8.73-2.95-8.73-7.41,0-5,4.15-8.78,9.66-8.82.57,0,1.11.1,1.63.17,0-.08.06-.16.1-.24.25-.13.32.1.39.32l.24,0v0h.16c.19-.36.56-.36.95-.32a2.86,2.86,0,0,0,0,.6,14,14,0,0,1,6.09,3.34l2.91,2.62v-1.14c.46-.15.5-1.13,1.11-1,0,.17,0,.34,0,.51l1.06-1.81,1.68-2.86,1.33-2.26-1.9-1.8a23.62,23.62,0,0,0-15.72-5.86c-10.9,0-19.44,8.13-19.44,18.51,0,9.08,6.28,15.29,17.23,17,.53.12,1.17.2,2,.3,5.95.75,10.41,2.08,12.26,5.52V508h.31v1.27h-.11a8.89,8.89,0,0,1,.73,3.71,10.37,10.37,0,0,1-2.69,7.31s0,.09,0,.13a.7.7,0,0,1-.51.35l-.24.21,0,.23-.23.16c-.2,1,.5.25.3,1.28h-.15l-.08.48-.23.16a1.49,1.49,0,0,0,.46.95c0,.41-.2.45-.15,1-.35-.28-.69-.39-1,0-.47-.48-.26-1.43-.16-2.23.37.63.43.63.8,0l-.09-.32.09-.31c.09-.39-.13-.71-.17-1a10.69,10.69,0,0,1-6.39,1.93c-.09,0-9.81-.12-13.8-6.31l-2.54-3.93-2.84,3.71-1.94,2.53-1.44,1.88,1.33,2c6.53,9.65,20.61,9.85,21.21,9.86H672c11.46-.31,20.1-8.73,20.1-19.61C692.14,506.86,689.06,495.53,668.41,493.42Zm15.31-19.16c.26-.09.27.3.48.31v.64c-.26.09-.28-.29-.48-.32Zm-23.41,3.18c.31.45,1,.18.79,1.59C660.7,479.64,659.9,478.59,660.31,477.44Zm-4.9,6.05c.27.56.62-.46.63,1C655.74,484.31,655.36,484.34,655.41,483.49Zm2.22-5.72h-.48C656.92,476.84,657.85,476.84,657.63,477.77Zm.78,16.88c-.31.64-.75-.11-1.1-.32-.2-1,.51-.24.32-1.28C658,493.32,658.48,493.47,658.41,494.65Zm1.59-3.51c0-.54-.13-.82-.32-.95.05-1.07.69.83.79-.32C660.87,490.19,660.34,491.28,660,491.14Zm5,2.87c.44-.23.32.63.64.64C665.64,495.32,664.94,494.71,665.05,494Zm6.65,2.87c0-.79.54-.1.63,0C672.31,497.67,671.8,497,671.7,496.88Zm-14.86,19.44c.11-.58.28-.06.47,0C657.2,516.88,657,516.36,656.84,516.32ZM671.7,526.5c0-1,.11-1.9.63-1.91C672.7,525.43,672.35,526.75,671.7,526.5Zm3.8-1.91c0-1.42.64-.19.79,0C676.08,525.87,676,524.51,675.5,524.59Zm7-15c-.08-1,.14-1.42.63-1.27-.18.46-.17.78.16.95C683.27,510,682.69,509.45,682.46,509.62Zm2,15c-.29-.12-.67-.11-.63-1C684.18,523.77,684.57,523.75,684.51,524.59Zm5.07-18.47c-.33.69-.51,0-.8-.32C688.8,504.85,689.73,504.94,689.58,506.12ZM688.16,509h-.8a4.17,4.17,0,0,1,.32-2.23C688.13,506.93,688,508.29,688.16,509Z" transform="translate(-308.41 -466.95)" style="fill:#3579c9"/></svg>